<svg width="250" height="341" viewBox="0 0 250 341" fill="none" xmlns="http://www.w3.org/2000/svg">
<path d="M129.645 0H91.6168L32.9953 110.057V0H0V269.057H32.9953V181.216L79.5579 164.988V269.057H112.553V118.65L54.9631 138.58L129.645 0Z" fill="black"/>
<path d="M191.944 173.563V138.578L249.534 118.65V269.057H175.128C149.703 269.057 136.981 255.2 136.981 227.473V0.000304832H210.018C242.429 0.000304832 249.534 13.9945 249.534 42.9594V69.7817H216.541V47.7715C216.541 35.8686 216.396 29.8979 202.306 29.8979L169.976 29.9116V221.29C169.976 233.204 169.976 239.16 182.863 239.16H216.541V164.987L191.944 173.563Z" fill="black"/>
<path d="M13.6537 313.259L23.5489 340.985H16.1846L7.3596 315.128V340.985H0.00038104V285.845H7.3596V312.2L14.6052 285.845H21.3563L13.6537 313.259Z" fill="black"/>
<path d="M33.3287 340.985H40.6916V320.712L49.5854 285.845H42.3023L37.3179 309.806H37.0882L31.5694 285.845H24.2826L33.3287 320.712V340.985Z" fill="black"/>
<path d="M70.4436 340.985H52.9596V285.845H60.3213V334.307H70.4436V340.985Z" fill="black"/>
<path d="M74.9715 285.845V340.985H93.2272V334.307H82.3357V315.951H91.9986V309.267H82.3357V292.522H93.2272V285.845H74.9715Z" fill="black"/>
<path d="M122.12 319.094V312.419H133.317V340.985H118.897C113.226 340.985 110.387 337.892 110.387 331.693V295.293C110.387 288.99 113.226 285.845 118.897 285.845H123.959C130.195 285.845 133.317 289.043 133.317 295.442V301.437H125.951V296.519C125.951 293.862 124.905 292.522 122.809 292.522H120.967C118.821 292.522 117.748 293.862 117.748 296.519V330.312C117.748 332.977 118.821 334.306 120.967 334.306H125.951V319.094H122.12Z" fill="black"/>
<path fill-rule="evenodd" clip-rule="evenodd" d="M138.927 331.618C138.927 337.868 141.892 340.985 147.824 340.985H154.727C160.657 340.985 163.625 337.868 163.625 331.618V295.293C163.625 288.99 160.68 285.845 154.806 285.845H147.749C141.868 285.845 138.927 288.99 138.927 295.293V331.618ZM153.346 334.307H149.587C147.39 334.307 146.292 333.232 146.292 331.085V295.747C146.292 293.597 147.367 292.522 149.512 292.522H152.962C155.157 292.522 156.257 293.597 156.257 295.747V331.085C156.257 333.232 155.29 334.307 153.346 334.307Z" fill="black"/>
<path fill-rule="evenodd" clip-rule="evenodd" d="M169.219 285.845H183.633C189.259 285.845 192.068 288.991 192.068 295.293V308.884C192.068 313.699 190.619 316.742 187.702 318.026L192.839 340.985H185.86L181.03 318.718H176.577V340.985H169.219V285.845ZM176.577 312.418H181.41C183.608 312.418 184.708 311.09 184.708 308.425V296.52C184.708 293.862 183.608 292.522 181.41 292.522H176.577V312.418Z" fill="black"/>
<path fill-rule="evenodd" clip-rule="evenodd" d="M198.434 285.845V340.985H212.778C218.659 340.985 221.596 338.325 221.596 333.001V296.443C221.596 289.376 218.146 285.845 211.242 285.845H198.434ZM211.319 334.307H205.796V292.522H210.936C213.133 292.522 214.231 293.862 214.231 296.52V331.851C214.231 333.486 213.26 334.307 211.319 334.307Z" fill="black"/>
<path d="M241.104 340.985H233.743V320.712L224.69 285.845H231.974L237.499 309.806H237.73L242.712 285.845H250L241.104 320.712V340.985Z" fill="black"/>
</svg>
