<svg xmlns="http://www.w3.org/2000/svg">
    <!-- arrow-right -->
    <symbol id="arrow-right" viewBox="0 0 16 16">
        <path d="M7.80075,3.28786949 C7.44459107,3.63568237 7.41097217,4.18549466 7.70266071,4.57138952 L7.79839868,4.68037011 L10.177,7.01883867 L2.98975207,7.01883867 C2.44312709,7.01883867 2,7.45811956 2,8 C2,8.54188044 2.44312709,8.98116133 2.98975207,8.98116133 L10.177,8.98116133 L7.79839868,11.3196299 C7.44341635,11.6686228 7.41165441,12.2185436 7.70464452,12.6034683 L7.80075,12.7121305 C8.19504279,13.0971836 8.82855128,13.0957752 9.22109786,12.7089727 L14,8 L9.22109786,3.29102728 C8.82855128,2.90422481 8.19504279,2.90281636 7.80075,3.28786949 Z" />
    </symbol>

    <!-- arrow-down -->
    <symbol id="arrow-down" viewBox="0 0 16 16">
        <path d="M12.7121305,7.80075 C12.3643176,7.44459107 11.8145053,7.41097217 11.4286105,7.70266071 L11.3196299,7.79839868 L8.98116133,10.177 L8.98116133,2.98975207 C8.98116133,2.44312709 8.54188044,2 8,2 C7.45811956,2 7.01883867,2.44312709 7.01883867,2.98975207 L7.01883867,10.177 L4.68037011,7.79839868 C4.33137718,7.44341635 3.7814564,7.41165441 3.39653173,7.70464452 L3.28786949,7.80075 C2.90281636,8.19504279 2.90422481,8.82855128 3.29102728,9.22109786 L8,14 L12.7089727,9.22109786 C13.0957752,8.82855128 13.0971836,8.19504279 12.7121305,7.80075 Z" />
    </symbol>
</svg>
