<svg width="16" height="16" viewBox="0 0 16 16" fill="none" xmlns="http://www.w3.org/2000/svg">
<path fill-rule="evenodd" clip-rule="evenodd" d="M11.1769 3.00329C12.7585 3.00329 13.6197 3.83451 13.9173 4.19523L14.1365 3.17581H16L15.8591 5.51262L15.859 11.944C15.8547 13.4881 15.7203 15.4715 11.8815 15.4715C7.88835 15.4715 8.15457 12.4447 8.15457 12.4447H10.3939C10.3939 12.6015 10.3156 13.9189 11.9285 13.9189C13.6041 13.9189 13.6667 12.9936 13.6667 11.7075V11.0018C13.2283 11.4566 12.4923 11.8644 11.2082 11.8644C8.84359 11.8644 7.84137 10.3117 7.84137 7.47304C7.84137 4.61867 8.82793 3.00329 11.1769 3.00329ZM2.11432 0V7.23098L5.04305 3.32531H7.42362L4.74548 6.58788L7.72119 11.8425H5.26231L3.39858 8.23485L2.11432 9.7877V11.8425H0V0H2.11432ZM11.7681 4.92497C10.5466 4.92497 9.99855 5.8346 9.99855 7.60682C9.99855 9.37903 10.5466 10.2416 11.7524 10.2416C12.6607 10.2416 13.2401 9.80248 13.6159 9.33198V5.85028C13.2871 5.42683 12.7077 4.92497 11.7681 4.92497Z" fill="black"/>
</svg>
